<svg width="492" height="491" viewBox="0 0 492 491" fill="none" xmlns="http://www.w3.org/2000/svg">
<path d="M400.836 0H91.1643C40.8156 0 0 40.7327 0 90.979V400.021C0 450.267 40.8156 491 91.1643 491H400.836C451.184 491 492 450.267 492 400.021V90.979C492 40.7327 451.184 0 400.836 0Z" fill="url(#paint0_linear_1937_1455)"/>
<path d="M305.772 355.12C300.801 355.12 296.445 357.523 293.627 361.154C301.723 361.154 309.82 361.154 317.968 361.154C315.149 357.523 310.794 355.12 305.823 355.12H305.772Z" fill="white"/>
<path d="M305.771 368.825C297.264 368.825 290.346 375.729 290.346 384.218C290.346 392.708 297.264 399.612 305.771 399.612C314.278 399.612 321.196 392.708 321.196 384.218C321.196 375.729 314.278 368.825 305.771 368.825Z" fill="white"/>
<path d="M185.092 368.825C176.585 368.825 169.667 375.729 169.667 384.218C169.667 392.708 176.585 399.612 185.092 399.612C193.598 399.612 200.516 392.708 200.516 384.218C200.516 375.729 193.598 368.825 185.092 368.825Z" fill="white"/>
<path d="M289.019 233.508C287.789 224.047 278.052 216.376 269.853 212.642C269.341 215.608 268.06 218.114 266.676 220.722C265.446 223.126 264.011 225.427 262.525 227.678C261.962 228.547 261.347 229.416 260.732 230.235C260.219 230.899 259.399 232.741 258.323 232.178C257.708 231.871 257.196 231.309 256.632 230.848C255.966 230.286 255.3 229.774 254.634 229.212L250.739 226.041L246.024 222.206L240.798 217.961L235.417 213.563L230.241 209.318L225.578 205.534L221.786 202.465L219.223 200.42L218.25 199.653C199.597 202.261 182.84 214.995 178.433 233.508H289.019Z" fill="white"/>
<path d="M309.976 128.618C309.618 127.903 309.003 127.34 308.337 126.931C306.953 126.113 305.364 125.601 303.827 125.09C303.161 124.834 302.443 124.63 301.777 124.323C301.367 124.118 300.855 123.914 300.547 123.556C300.137 123.095 298.19 117.879 297.319 116.396C285.379 96.4 262.626 87.1435 239.874 93.1781C215.994 99.4684 200.467 122.942 200.108 146.978H232.187C232.392 142.887 234.391 139.051 237.517 136.443C237.517 136.443 237.568 136.392 237.619 136.341C238.746 135.42 239.976 134.653 241.257 133.937C242.743 133.17 244.23 132.454 245.767 131.891C247.509 131.227 249.252 130.664 251.045 130.153C252.992 129.59 254.94 129.13 256.887 128.772C258.937 128.363 261.038 128.005 263.139 127.698C265.291 127.391 267.443 127.135 269.647 126.931C271.85 126.726 274.003 126.573 276.206 126.471C278.359 126.368 280.511 126.317 282.714 126.317C284.815 126.317 286.865 126.317 288.966 126.471C290.913 126.573 292.861 126.675 294.808 126.88C296.55 127.084 298.344 127.289 300.086 127.596C302.187 127.954 304.34 128.363 306.338 129.13C307.004 129.386 307.568 129.795 308.183 130.153C308.593 130.408 309.413 131.022 309.925 130.715C310.284 130.511 310.233 130.05 310.233 129.692C310.233 129.283 310.13 128.925 309.976 128.567V128.618Z" fill="white"/>
<path d="M302.911 180.066C302.553 180.066 301.938 183.595 301.835 183.953C299.273 194.488 291.945 203.437 281.747 206.71C267.809 211.159 251.513 204.255 242.084 193.362C239.573 190.447 237.882 186.816 236.96 183.032C236.242 180.219 235.935 177.304 235.883 174.338C235.883 173.878 236.088 172.446 235.883 172.088C236.191 172.548 238.548 173.98 240.905 175.31C246.337 178.481 251.974 181.702 258.277 182.828C270.166 185.027 278.878 181.191 287.282 172.906C290.51 178.02 297.07 180.68 303.014 180.015L302.911 180.066Z" fill="white"/>
<path d="M304.346 139.563H255.202C254.587 139.563 253.921 139.665 253.306 139.818C243.467 142.733 241.212 150.711 242.237 160.786C243.723 175.77 259.661 182.469 272.523 176.23C276.11 174.492 281.337 168.764 284.668 168.764C288.204 168.764 291.535 173.366 295.481 174.594C303.065 177.049 310.188 172.548 312.443 165.133C314.492 158.382 314.339 143.91 306.857 140.074C306.088 139.665 305.217 139.563 304.346 139.563ZM302.347 168.048C293.585 170.656 291.996 158.638 283.489 159.252C277.904 159.661 274.06 167.639 268.321 169.633C262.786 171.525 255.356 171.065 252.435 165.389C249.514 159.763 248.848 148.87 256.945 147.592L299.836 147.694C302.757 147.694 305.371 149.586 306.037 152.399C307.421 158.127 306.037 166.923 302.399 168.048H302.347Z" fill="white"/>
<path d="M230.962 158.689C232.961 169.582 230.962 185.334 217.023 185.947C202.316 186.612 200.215 169.889 200.062 158.689H230.911H230.962Z" fill="white"/>
<path d="M185.101 368.825C180.079 368.825 175.672 371.28 172.853 374.962C180.95 374.86 189.047 374.809 197.195 374.809C194.376 371.229 190.02 368.825 185.101 368.825Z" fill="white"/>
<path d="M377.673 239.9C375.265 236.781 371.627 234.94 366.912 234.53C354.255 233.457 338.83 233.661 323.918 233.815C316.59 233.917 309.723 233.968 303.266 233.917C280.309 233.712 256.941 233.815 234.342 233.917C199.752 234.07 163.983 234.224 128.881 233.303H122.219L105.308 182.572C104.488 180.117 102.233 178.532 99.6712 178.532H54.6784C51.1937 178.532 48.4265 181.549 48.7852 185.078C49.0927 188.146 51.9624 190.396 55.0371 190.396H95.4691L116.838 259.334L145.33 362.637C147.38 370.104 154.247 375.218 161.985 375.116C164.086 375.116 166.187 375.116 168.288 375.065C171.567 369.183 177.819 365.194 185.045 365.194C192.27 365.194 198.368 369.081 201.648 374.86C222.146 374.809 242.593 374.86 262.68 374.86C271.392 374.86 280.155 374.86 289.02 374.911C292.3 369.081 298.552 365.143 305.675 365.143C312.798 365.143 319.05 369.081 322.329 374.911C326.941 374.911 331.605 374.911 336.217 374.86C341.136 374.86 346.312 372.814 350.053 369.439C353.742 366.166 354.921 361.359 356.304 355.785L356.561 354.711C359.072 344.431 361.839 334.05 364.504 324.026C366.297 317.327 368.039 310.628 369.782 303.928C373.471 289.66 377.622 272.732 380.543 255.6C381.619 249.412 380.543 243.685 377.622 239.9H377.673ZM125.089 245.884H180.433L186.685 299.07H139.386L125.037 245.884H125.089ZM163.983 363.558C159.576 363.558 155.784 358.853 155.015 355.529L143.178 310.321H189.042L195.447 363.558H163.983ZM245.411 363.558H207.644L200.367 310.321H245.411V363.558ZM245.411 299.07H198.881L191.758 245.884H245.411V299.07ZM294.298 363.558H256.89V310.321H301.934L294.298 363.558ZM303.061 299.07H256.89V245.884H310.594L303.01 299.07H303.061ZM354.306 317.583V318.145C352.615 328.936 348.413 345.915 345.441 355.478C343.903 360.541 340.726 363.558 336.985 363.558H306.7L314.386 310.321H354.05L354.46 314.207C354.613 315.537 354.46 316.662 354.357 317.583H354.306ZM357.893 299.07H315.565L322.022 245.884H371.165L357.893 299.07Z" fill="white"/>
<defs>
<linearGradient id="paint0_linear_1937_1455" x1="245.974" y1="0.0511405" x2="245.974" y2="491.051" gradientUnits="userSpaceOnUse">
<stop stop-color="#2A7DD3"/>
<stop offset="0.39" stop-color="#2A7AD1"/>
<stop offset="0.55" stop-color="#2A73CD"/>
<stop offset="0.67" stop-color="#2A67C6"/>
<stop offset="0.77" stop-color="#2A55BC"/>
<stop offset="0.85" stop-color="#2A3FAF"/>
<stop offset="0.93" stop-color="#2A239F"/>
<stop offset="1" stop-color="#2A008B"/>
</linearGradient>
</defs>
</svg>
