<svg width="65" height="74" viewBox="0 0 65 74" fill="none" xmlns="http://www.w3.org/2000/svg">
<path d="M53.6038 26.1176H46.25V4.35294C46.25 1.95882 44.1688 0 41.625 0H23.125C20.5812 0 18.5 1.95882 18.5 4.35294V26.1176H11.1462C7.03 26.1176 4.94875 30.8188 7.8625 33.5612L29.0912 53.5412C30.895 55.2388 33.8088 55.2388 35.6125 53.5412L56.8413 33.5612C59.755 30.8188 57.72 26.1176 53.6038 26.1176ZM0 69.6471C0 72.0412 2.08125 74 4.625 74H60.125C62.6688 74 64.75 72.0412 64.75 69.6471C64.75 67.2529 62.6688 65.2941 60.125 65.2941H4.625C2.08125 65.2941 0 67.2529 0 69.6471Z" fill="#6B56E3"/>
</svg>
