<svg width="75" height="74" viewBox="0 0 75 74" fill="none" xmlns="http://www.w3.org/2000/svg">
<path fill-rule="evenodd" clip-rule="evenodd" d="M7.0016 3.20315C7.42935 2.24304 8.22089 1.4921 9.20217 1.11545C10.1835 0.738793 11.2742 0.767257 12.2345 1.19458L57.644 21.4283L59.5522 17.2262C59.8773 16.5113 60.4075 15.9091 61.0754 15.496C61.7433 15.0829 62.5188 14.8774 63.3036 14.9057C64.0885 14.9341 64.8472 15.1948 65.4836 15.655C66.12 16.1152 66.6054 16.754 66.8782 17.4904L71.1067 28.9076C71.4719 29.8898 71.4334 30.9766 70.9995 31.9304C70.5657 32.8842 69.7719 33.6275 68.7916 33.9977L57.4273 38.2792C56.6924 38.5577 55.8913 38.6116 55.1257 38.4338C54.3602 38.2561 53.6647 37.8549 53.1277 37.281C52.5907 36.7072 52.2363 35.9867 52.1097 35.211C51.9831 34.4354 52.0898 33.6396 52.4165 32.9247L54.3616 28.6433L9.01017 8.4413C8.05006 8.01354 7.29912 7.22201 6.92247 6.24073C6.54581 5.25944 6.57428 4.16346 7.0016 3.20315ZM6.65803 29.0714C5.25617 29.0714 3.91173 29.6283 2.92046 30.6196C1.9292 31.6109 1.37231 32.9553 1.37231 34.3572V71.3572C1.37231 72.0581 1.65076 72.7303 2.14639 73.2259C2.64202 73.7216 3.31424 74 4.01517 74H17.2295C17.9304 74 18.6026 73.7216 19.0982 73.2259C19.5939 72.7303 19.8723 72.0581 19.8723 71.3572V34.3572C19.8723 32.9553 19.3154 31.6109 18.3242 30.6196C17.3329 29.6283 15.9885 29.0714 14.5866 29.0714H6.65803ZM29.3496 38.5487C30.3406 37.5574 31.6849 37.0003 33.0866 37H41.0152C42.417 37 43.7615 37.5569 44.7527 38.5482C45.744 39.5394 46.3009 40.8839 46.3009 42.2857V71.3572C46.3009 72.0581 46.0224 72.7303 45.5268 73.2259C45.0312 73.7216 44.359 74 43.658 74H30.4437C29.7428 74 29.0706 73.7216 28.575 73.2259C28.0793 72.7303 27.8009 72.0581 27.8009 71.3572V42.2857C27.8012 40.884 28.3583 39.5398 29.3496 38.5487ZM59.5152 44.9286C58.1133 44.9286 56.7689 45.4855 55.7776 46.4767C54.7863 47.468 54.2295 48.8124 54.2295 50.2143V71.3572C54.2295 72.0581 54.5079 72.7303 55.0035 73.2259C55.4992 73.7216 56.1714 74 56.8723 74H70.0866C70.7875 74 71.4598 73.7216 71.9554 73.2259C72.451 72.7303 72.7295 72.0581 72.7295 71.3572V50.2143C72.7295 48.8124 72.1726 47.468 71.1813 46.4767C70.19 45.4855 68.8456 44.9286 67.4437 44.9286H59.5152Z" fill="#6B56E3"/>
</svg>
