<svg width="80" height="74" viewBox="0 0 80 74" fill="none" xmlns="http://www.w3.org/2000/svg">
<g clip-path="url(#clip0_514_645)">
<path d="M41.5509 63.1111C46.174 63.1111 49.9218 59.3983 49.9218 54.8182C49.9218 50.2382 46.174 46.5254 41.5509 46.5254C36.9277 46.5254 33.1799 50.2382 33.1799 54.8182C33.1799 59.3983 36.9277 63.1111 41.5509 63.1111Z" fill="#6B56E3"/>
<path d="M41.551 19.4486C45.7169 19.4486 49.0941 16.1029 49.0941 11.9758C49.0941 7.84873 45.7169 4.50305 41.551 4.50305C37.385 4.50305 34.0078 7.84873 34.0078 11.9758C34.0078 16.1029 37.385 19.4486 41.551 19.4486Z" fill="#6B56E3"/>
<path d="M69.6565 18.0099C73.0177 18.0099 75.7424 15.3105 75.7424 11.9807C75.7424 8.65089 73.0177 5.95154 69.6565 5.95154C66.2953 5.95154 63.5706 8.65089 63.5706 11.9807C63.5706 15.3105 66.2953 18.0099 69.6565 18.0099Z" fill="#6B56E3"/>
<path d="M16.2814 17.4324C19.3193 17.4324 21.782 14.9927 21.782 11.9831C21.782 8.97355 19.3193 6.53381 16.2814 6.53381C13.2435 6.53381 10.7808 8.97355 10.7808 11.9831C10.7808 14.9927 13.2435 17.4324 16.2814 17.4324Z" fill="#6B56E3"/>
<path d="M16.2814 39.579C19.157 39.579 21.4882 37.2696 21.4882 34.4209C21.4882 31.5721 19.157 29.2627 16.2814 29.2627C13.4058 29.2627 11.0747 31.5721 11.0747 34.4209C11.0747 37.2696 13.4058 39.579 16.2814 39.579Z" fill="#6B56E3"/>
<path d="M69.6612 59.712C72.3894 59.712 74.601 57.521 74.601 54.8183C74.601 52.1155 72.3894 49.9246 69.6612 49.9246C66.9331 49.9246 64.7214 52.1155 64.7214 54.8183C64.7214 57.521 66.9331 59.712 69.6612 59.712Z" fill="#6B56E3"/>
<path d="M41.5508 39.317C44.2749 39.317 46.4833 37.1293 46.4833 34.4306C46.4833 31.7319 44.2749 29.5442 41.5508 29.5442C38.8267 29.5442 36.6184 31.7319 36.6184 34.4306C36.6184 37.1293 38.8267 39.317 41.5508 39.317Z" fill="#6B56E3"/>
<path d="M16.8521 59.7046C19.5762 59.7046 21.7845 57.5169 21.7845 54.8182C21.7845 52.1195 19.5762 49.9318 16.8521 49.9318C14.128 49.9318 11.9197 52.1195 11.9197 54.8182C11.9197 57.5169 14.128 59.7046 16.8521 59.7046Z" fill="#6B56E3"/>
<path d="M69.6589 39.2152C72.3303 39.2152 74.4959 37.0698 74.4959 34.4234C74.4959 31.777 72.3303 29.6316 69.6589 29.6316C66.9876 29.6316 64.822 31.777 64.822 34.4234C64.822 37.0698 66.9876 39.2152 69.6589 39.2152Z" fill="#6B56E3"/>
<path d="M0.800781 0V73.9806C1.18039 74.4149 6.66631 67.0804 6.66631 67.0804V0H0.800781Z" fill="#6B56E3"/>
<path d="M79.4258 68.1868H0.800781C1.73143 70.2175 2.91678 72.1609 4.19275 73.9976H79.4258V68.1868Z" fill="#6B56E3"/>
<path d="M6.66631 37.4368H0.800781V74H6.66631V37.4368Z" fill="#6B56E3"/>
</g>
<defs>
<clipPath id="clip0_514_645">
<rect width="78.625" height="74" fill="white" transform="translate(0.800781)"/>
</clipPath>
</defs>
</svg>
